HIERARCHY
ROOT Hips
{
	OFFSET 0.000000 83.214638 0.000000
	CHANNELS 6 Xposition Yposition Zposition Xrotation Yrotation Zrotation
	JOINT Pelvis
	{
		OFFSET 0.000000 0.000000 0.000000
		CHANNELS 3 Xrotation Yrotation Zrotation
		JOINT LeftUpLeg
		{
			OFFSET 8.479700 -4.795502 -0.379100
			CHANNELS 3 Xrotation Yrotation Zrotation
			JOINT LeftLeg
			{
				OFFSET 0.024144 -32.555107 0.112900
				CHANNELS 3 Xrotation Yrotation Zrotation
				JOINT LeftFoot
				{
					OFFSET -0.024144 -32.638630 -3.012600
					CHANNELS 3 Xrotation Yrotation Zrotation
					JOINT LeftToeBase
					{
						OFFSET 0.970200 -13.225400 11.864200
						CHANNELS 3 Xrotation Yrotation Zrotation
						End Site
						{
							OFFSET 0.000000 12.319262 0.000000
						}
					}
					JOINT LFootTongue
					{
						OFFSET 1.142400 -1.059800 6.665200
						CHANNELS 3 Xrotation Yrotation Zrotation
						End Site
						{
							OFFSET 0.000000 12.319262 0.000000
						}
					}
				}
				JOINT LeftPantLeg
				{
					OFFSET 0.918482 -16.533964 -2.284700
					CHANNELS 3 Xrotation Yrotation Zrotation
					End Site
					{
						OFFSET 0.350399 24.744368 0.000000
					}
				}
			}
		}
		JOINT RightUpLeg
		{
			OFFSET -8.479700 -4.795502 -0.379100
			CHANNELS 3 Xrotation Yrotation Zrotation
			JOINT RightLeg
			{
				OFFSET -0.023144 -32.555092 0.112900
				CHANNELS 3 Xrotation Yrotation Zrotation
				JOINT RightFoot
				{
					OFFSET 0.023144 -32.638641 -3.012700
					CHANNELS 3 Xrotation Yrotation Zrotation
					JOINT RightToeBase
					{
						OFFSET -0.970200 -13.225400 11.864200
						CHANNELS 3 Xrotation Yrotation Zrotation
						End Site
						{
							OFFSET 0.000000 12.319244 0.000000
						}
					}
					JOINT RFootTongue
					{
						OFFSET -1.142200 -1.059800 6.665200
						CHANNELS 3 Xrotation Yrotation Zrotation
						End Site
						{
							OFFSET 0.000000 12.319243 0.000000
						}
					}
				}
				JOINT RightPantLeg
				{
					OFFSET -0.919482 -16.533978 -2.284800
					CHANNELS 3 Xrotation Yrotation Zrotation
					End Site
					{
						OFFSET -0.350400 24.744419 0.000000
					}
				}
			}
		}
	}
	JOINT Spine
	{
		OFFSET 0.000000 7.722000 1.166200
		CHANNELS 3 Xrotation Yrotation Zrotation
		JOINT Spine1
		{
			OFFSET 0.000000 12.024101 0.248800
			CHANNELS 3 Xrotation Yrotation Zrotation
			JOINT Spine2
			{
				OFFSET 0.000000 11.502998 -0.491200
				CHANNELS 3 Xrotation Yrotation Zrotation
				JOINT Neck
				{
					OFFSET 0.000000 18.430702 -3.123100
					CHANNELS 3 Xrotation Yrotation Zrotation
					JOINT Head
					{
						OFFSET 0.000000 9.051102 1.034000
						CHANNELS 3 Xrotation Yrotation Zrotation
						JOINT HairB
						{
							OFFSET 0.208400 24.786102 24.822300
							CHANNELS 3 Xrotation Yrotation Zrotation
							End Site
							{
								OFFSET 0.000000 32.263779 0.000000
							}
						}
						JOINT HairA
						{
							OFFSET -7.081100 24.428299 23.196600
							CHANNELS 3 Xrotation Yrotation Zrotation
							End Site
							{
								OFFSET 0.000000 32.263779 0.000000
							}
						}
						JOINT Hat
						{
							OFFSET 16.728800 15.048294 -15.439601
							CHANNELS 3 Xrotation Yrotation Zrotation
							End Site
							{
								OFFSET 0.000000 32.263779 0.000000
							}
						}
					}
				}
				JOINT LeftShoulder
				{
					OFFSET 6.197800 13.665199 -4.064700
					CHANNELS 3 Xrotation Yrotation Zrotation
					JOINT LeftArm
					{
						OFFSET 7.778100 -0.187103 -1.709300
						CHANNELS 3 Xrotation Yrotation Zrotation
						JOINT LeftForeArm
						{
							OFFSET 22.049376 0.000000 0.000000
							CHANNELS 3 Xrotation Yrotation Zrotation
							JOINT LeftHand
							{
								OFFSET 23.009392 0.000000 0.000000
								CHANNELS 3 Xrotation Yrotation Zrotation
								JOINT LeftHandThumb1
								{
									OFFSET 3.507191 -2.063065 3.133727
									CHANNELS 3 Xrotation Yrotation Zrotation
									JOINT LeftHandThumb2
									{
										OFFSET 3.101337 -1.790558 1.790558
										CHANNELS 3 Xrotation Yrotation Zrotation
										JOINT LeftHandThumb3
										{
											OFFSET 3.058640 -1.765907 1.765906
											CHANNELS 3 Xrotation Yrotation Zrotation
											End Site
											{
												OFFSET -0.415260 3.926476 -0.049563
											}
										}
									}
								}
								JOINT LeftHandIndex1
								{
									OFFSET 11.334419 -0.901459 3.706815
									CHANNELS 3 Xrotation Yrotation Zrotation
									JOINT LeftHandIndex2
									{
										OFFSET 3.283112 0.000000 0.000000
										CHANNELS 3 Xrotation Yrotation Zrotation
										JOINT LeftHandIndex3
										{
											OFFSET 3.323853 0.000000 0.000000
											CHANNELS 3 Xrotation Yrotation Zrotation
											End Site
											{
												OFFSET -1.135597 3.097809 0.402452
											}
										}
									}
								}
								JOINT LeftHandMiddle1
								{
									OFFSET 11.335861 0.000000 0.000000
									CHANNELS 3 Xrotation Yrotation Zrotation
									JOINT LeftHandMiddle2
									{
										OFFSET 3.410492 0.000000 0.000000
										CHANNELS 3 Xrotation Yrotation Zrotation
										JOINT LeftHandMiddle3
										{
											OFFSET 3.312172 0.000000 0.000000
											CHANNELS 3 Xrotation Yrotation Zrotation
											End Site
											{
												OFFSET -1.150200 3.080154 0.400270
											}
										}
									}
								}
								JOINT LeftHandRing1
								{
									OFFSET 11.514786 -0.013176 -3.003090
									CHANNELS 3 Xrotation Yrotation Zrotation
									JOINT LeftHandRing2
									{
										OFFSET 3.053307 0.000000 0.000000
										CHANNELS 3 Xrotation Yrotation Zrotation
										JOINT LeftHandRing3
										{
											OFFSET 3.295807 0.000000 0.000000
											CHANNELS 3 Xrotation Yrotation Zrotation
											End Site
											{
												OFFSET -1.281006 3.013344 0.375733
											}
										}
									}
								}
								JOINT LeftHandPinky1
								{
									OFFSET 10.518692 -0.960396 -5.730441
									CHANNELS 3 Xrotation Yrotation Zrotation
									JOINT LeftHandPinky2
									{
										OFFSET 2.861649 0.000000 0.000000
										CHANNELS 3 Xrotation Yrotation Zrotation
										JOINT LeftHandPinky3
										{
											OFFSET 2.863380 0.000000 0.000000
											CHANNELS 3 Xrotation Yrotation Zrotation
											End Site
											{
												OFFSET -0.843597 2.711159 0.369971
											}
										}
									}
								}
							}
							JOINT LSleeve
							{
								OFFSET 6.676277 -0.344902 -1.011730
								CHANNELS 3 Xrotation Yrotation Zrotation
								End Site
								{
									OFFSET 0.000000 14.885353 0.000000
								}
							}
						}
					}
				}
				JOINT RightShoulder
				{
					OFFSET -6.197800 13.665199 -4.064700
					CHANNELS 3 Xrotation Yrotation Zrotation
					JOINT RightArm
					{
						OFFSET -7.778100 -0.187103 -1.709300
						CHANNELS 3 Xrotation Yrotation Zrotation
						JOINT RightForeArm
						{
							OFFSET -22.049376 0.000000 0.000000
							CHANNELS 3 Xrotation Yrotation Zrotation
							JOINT RightHand
							{
								OFFSET -23.009392 0.000000 0.000000
								CHANNELS 3 Xrotation Yrotation Zrotation
								JOINT RightHandThumb1
								{
									OFFSET -3.507191 -2.063065 3.133727
									CHANNELS 3 Xrotation Yrotation Zrotation
									JOINT RightHandThumb2
									{
										OFFSET -3.101337 -1.790558 1.790558
										CHANNELS 3 Xrotation Yrotation Zrotation
										JOINT RightHandThumb3
										{
											OFFSET -3.058640 -1.765907 1.765906
											CHANNELS 3 Xrotation Yrotation Zrotation
											End Site
											{
												OFFSET 0.415260 3.926476 -0.049563
											}
										}
									}
								}
								JOINT RightHandIndex1
								{
									OFFSET -11.334419 -0.901459 3.706815
									CHANNELS 3 Xrotation Yrotation Zrotation
									JOINT RightHandIndex2
									{
										OFFSET -3.283112 0.000000 0.000000
										CHANNELS 3 Xrotation Yrotation Zrotation
										JOINT RightHandIndex3
										{
											OFFSET -3.323853 0.000000 0.000000
											CHANNELS 3 Xrotation Yrotation Zrotation
											End Site
											{
												OFFSET 1.135597 3.097809 0.402452
											}
										}
									}
								}
								JOINT RightHandMiddle1
								{
									OFFSET -11.335861 0.000000 0.000000
									CHANNELS 3 Xrotation Yrotation Zrotation
									JOINT RightHandMiddle2
									{
										OFFSET -3.410492 0.000000 0.000000
										CHANNELS 3 Xrotation Yrotation Zrotation
										JOINT RightHandMiddle3
										{
											OFFSET -3.312172 0.000000 0.000000
											CHANNELS 3 Xrotation Yrotation Zrotation
											End Site
											{
												OFFSET 1.150200 3.080154 0.400270
											}
										}
									}
								}
								JOINT RightHandRing1
								{
									OFFSET -11.514786 -0.013176 -3.003090
									CHANNELS 3 Xrotation Yrotation Zrotation
									JOINT RightHandRing2
									{
										OFFSET -3.053307 0.000000 0.000000
										CHANNELS 3 Xrotation Yrotation Zrotation
										JOINT RightHandRing3
										{
											OFFSET -3.295807 0.000000 0.000000
											CHANNELS 3 Xrotation Yrotation Zrotation
											End Site
											{
												OFFSET 1.281006 3.013344 0.375733
											}
										}
									}
								}
								JOINT RightHandPinky1
								{
									OFFSET -10.518692 -0.960396 -5.730441
									CHANNELS 3 Xrotation Yrotation Zrotation
									JOINT RightHandPinky2
									{
										OFFSET -2.861649 0.000000 0.000000
										CHANNELS 3 Xrotation Yrotation Zrotation
										JOINT RightHandPinky3
										{
											OFFSET -2.863380 0.000000 0.000000
											CHANNELS 3 Xrotation Yrotation Zrotation
											End Site
											{
												OFFSET 0.843597 2.711159 0.369971
											}
										}
									}
								}
							}
							JOINT RSleeve
							{
								OFFSET -6.676277 -0.344902 -1.011730
								CHANNELS 3 Xrotation Yrotation Zrotation
								End Site
								{
									OFFSET 0.000000 14.885353 0.000000
								}
							}
						}
					}
				}
				JOINT Backpack
				{
					OFFSET 0.000000 -2.471497 36.677502
					CHANNELS 3 Xrotation Yrotation Zrotation
					End Site
					{
						OFFSET 0.000000 20.427315 0.000000
					}
				}
				JOINT Hood
				{
					OFFSET 0.000000 18.754097 -10.431000
					CHANNELS 3 Xrotation Yrotation Zrotation
					JOINT Hood1
					{
						OFFSET 0.000000 -5.011002 -7.685901
						CHANNELS 3 Xrotation Yrotation Zrotation
						End Site
						{
							OFFSET 0.000000 9.175140 0.000000
						}
					}
				}
				JOINT LHoodieString
				{
					OFFSET 5.250500 16.397697 3.089900
					CHANNELS 3 Xrotation Yrotation Zrotation
					JOINT LHoodieString1
					{
						OFFSET 0.257700 -6.364304 3.694600
						CHANNELS 3 Xrotation Yrotation Zrotation
						JOINT LHoodieString2
						{
							OFFSET 0.000000 -9.643799 2.679100
							CHANNELS 3 Xrotation Yrotation Zrotation
							End Site
							{
								OFFSET 0.000000 10.009018 0.000000
							}
						}
					}
				}
				JOINT RHoodieString
				{
					OFFSET -5.250500 16.397697 3.089900
					CHANNELS 3 Xrotation Yrotation Zrotation
					JOINT RHoodieString1
					{
						OFFSET -0.257700 -6.364304 3.694600
						CHANNELS 3 Xrotation Yrotation Zrotation
						JOINT RHoodieString2
						{
							OFFSET 0.000000 -9.643799 2.679100
							CHANNELS 3 Xrotation Yrotation Zrotation
							End Site
							{
								OFFSET 0.000000 10.009018 0.000000
							}
						}
					}
				}
			}
			JOINT LBackpack_Strap
			{
				OFFSET 15.223200 -7.719803 -6.610900
				CHANNELS 3 Xrotation Yrotation Zrotation
				End Site
				{
					OFFSET 0.000000 16.040596 0.000000
				}
			}
			JOINT RBackpack_Strap
			{
				OFFSET -15.223000 -7.719803 -6.610900
				CHANNELS 3 Xrotation Yrotation Zrotation
				End Site
				{
					OFFSET 0.000000 16.040596 0.000000
				}
			}
		}
	}
	JOINT BoyFacialAnim_Joint
	{
		OFFSET 1.000000 -82.208099 -1.550900
		CHANNELS 3 Xrotation Yrotation Zrotation
		End Site
		{
			OFFSET 0.000000 30.012791 0.000000
		}
	}
}
MOTION
Frames: 4
Frame Time: 0.033333
-0.119081 80.994026 0.494629 -2.386530 0.062518 -2.410651 -0.000000 0.000000 -0.000000 -30.125991 3.708496 6.393577 60.150785 1.534757 0.551696 -0.857518 0.466731 -7.886998 -0.000001 0.000000 0.000000 -0.000001 0.000000 0.000000 -0.000002 -0.000001 0.000000 -9.262296 -4.974440 6.739872 26.714956 6.923830 1.132045 -11.957709 1.691268 -10.009657 0.000000 -0.000000 0.000000 0.000000 -0.000000 0.000000 0.000001 -0.000000 -0.000001 14.311651 1.164187 2.879755 -4.344022 0.844258 -0.932463 -4.329085 0.772027 -1.030094 -0.098562 -1.689910 2.622860 -5.842305 -0.460588 -1.540274 -0.000000 0.000000 0.000000 -0.000000 0.000000 0.000000 -0.000000 0.000000 0.000000 2.370574 2.599476 -1.341535 -3.621167 -8.176670 -74.042112 12.004455 -10.522992 -9.011434 -0.378948 1.905934 11.578043 -4.982859 13.405862 11.311721 3.517334 8.486181 1.851589 -0.000001 0.000002 0.000005 0.376691 -6.145575 -25.285038 -0.034511 0.056865 -22.183840 -0.000003 0.000000 -0.000004 -0.682833 -5.541197 -29.068394 -0.000935 0.003756 -24.675132 -0.000001 -0.000001 -0.000002 -1.915529 -6.193599 -34.198590 0.001239 0.005437 -28.105308 -0.000003 -0.000001 -0.000004 -3.466240 -6.910118 -39.124632 -0.009200 0.002700 -31.381639 0.000001 -0.000000 -0.000004 -0.000000 -0.000000 0.000000 3.460708 0.236100 4.393020 -1.477360 25.831422 70.378522 6.809918 19.847273 4.732019 -19.537623 0.957829 -12.165253 -0.782974 -20.555755 -5.075703 4.541201 -11.071001 -2.314938 -0.000000 0.000001 0.000002 0.748708 1.485550 23.202865 -0.036683 -0.055005 19.908325 0.000000 0.000002 0.000004 -0.268019 2.185020 25.525030 -0.000279 0.002706 21.457821 0.000001 0.000000 0.000003 -1.284765 3.638257 29.547801 0.000905 -0.004709 24.164444 -0.000002 -0.000002 0.000005 -2.714528 5.335798 33.797460 0.001131 -0.005406 26.995436 0.000002 -0.000001 -0.000003 0.000001 0.000001 -0.000001 0.000000 -0.000000 0.000000 0.000000 -0.000000 0.000000 0.000000 -0.000000 0.000000 0.000000 -0.000000 0.000000 0.000000 -0.000000 0.000000 0.000000 0.000000 -0.000000 0.000000 -0.000000 0.000000 0.000000 -0.000000 0.000000 0.000000 0.000000 -0.000000 -0.000000 0.000000 -0.000000 -0.000000 0.000000 -0.000000 -0.000000 0.000000 -0.000000 
-0.310209 80.919464 2.514903 -2.100524 0.105171 -2.231629 0.000000 -0.000000 0.000000 -34.484006 4.715268 6.764505 58.518766 -0.154997 0.492145 4.478324 -0.100320 -6.082721 0.000002 -0.000000 -0.000001 0.000002 -0.000000 -0.000000 -0.000000 0.000000 -0.000000 -7.563699 -4.893459 6.783962 26.230479 7.341061 1.195563 -13.311603 1.725577 -10.536619 -0.000000 0.000000 0.000000 -0.000000 0.000000 0.000000 -0.000001 0.000000 -0.000000 13.371721 1.475656 3.023243 -3.932890 1.045654 -1.224898 -3.950104 1.157972 -1.413445 -0.483782 -1.837465 2.573257 -5.906300 -0.598089 -1.504141 0.000000 -0.000000 -0.000000 0.000000 -0.000000 -0.000000 0.000000 -0.000000 -0.000000 2.379899 2.336635 -1.237537 -3.563756 -7.679596 -74.051572 11.992219 -9.337980 -9.087615 -0.553296 1.318386 11.899778 -4.963617 12.835646 11.475323 3.426999 8.211924 1.791367 0.000002 0.000001 0.000001 0.282751 -6.085615 -25.162991 -0.034318 0.057538 -21.828248 -0.000003 0.000000 -0.000000 -0.684148 -5.362849 -29.164525 -0.000817 0.015671 -24.350188 0.000002 -0.000001 0.000004 -1.802619 -5.863119 -34.539403 0.001229 0.003208 -27.642370 0.000001 0.000000 -0.000000 -3.350159 -6.573460 -39.551884 -0.010018 0.001730 -31.022620 0.000001 0.000001 -0.000000 0.000002 0.000000 0.000000 3.473806 0.185569 4.425886 -1.399279 26.761082 70.015975 6.777481 20.249337 4.207218 -19.619204 0.950563 -11.671306 -0.747353 -19.592758 -5.136671 4.792413 -11.118482 -2.021742 0.000001 0.000001 0.000000 0.976202 1.099659 21.882721 -0.035859 -0.071371 19.723604 -0.000000 -0.000000 0.000000 -0.312160 1.515819 24.471164 0.010759 -0.064382 21.832242 0.000000 0.000000 0.000003 -1.298055 2.443966 27.971646 0.000886 -0.028884 24.812800 0.000001 -0.000002 0.000000 -2.831016 3.915525 32.937143 0.006495 -0.023644 27.524540 -0.000002 -0.000004 -0.000004 0.000001 0.000000 -0.000001 -0.000000 0.000000 0.000000 -0.000000 0.000000 0.000000 -0.000000 0.000000 0.000000 -0.000000 0.000000 0.000000 -0.000000 0.000000 0.000000 -0.000000 0.000000 -0.000000 -0.000000 0.000000 0.000000 -0.000000 0.000000 0.000000 -0.000000 0.000000 -0.000000 0.000001 -0.000000 0.000000 0.000001 -0.000000 0.000000 0.000000 -0.000000 0.000000 
-0.476196 80.795761 4.606152 -1.893250 0.071727 -2.280313 0.000000 0.000000 -0.000000 -38.133332 5.675934 7.239294 55.823153 -1.722138 0.430270 10.796894 -0.644376 -4.469338 0.000002 0.000001 0.000000 0.000002 0.000001 0.000000 -0.000001 0.000000 -0.000000 -5.569464 -5.028632 6.993922 25.476320 7.848495 1.222756 -14.491259 1.797114 -10.876400 0.000000 0.000000 -0.000000 0.000000 0.000000 -0.000000 0.000003 0.000000 0.000001 12.723603 1.789023 3.323550 -3.732043 1.160321 -1.443124 -3.777871 1.476178 -1.712692 -0.454865 -1.893333 2.456956 -6.258158 -0.671272 -1.539844 0.000000 0.000000 -0.000000 0.000000 0.000000 -0.000000 0.000000 0.000000 -0.000000 2.379442 2.115560 -1.237283 -3.233064 -7.104736 -74.093100 12.332416 -8.280629 -9.134494 -0.741732 1.133799 11.629727 -4.971329 12.206347 11.626853 3.358022 7.987909 1.737750 0.000000 -0.000001 0.000001 0.172886 -6.083368 -25.366109 -0.034023 0.058340 -21.526588 -0.000004 0.000001 0.000000 -0.713894 -5.254695 -29.550831 0.001734 0.027241 -24.080657 0.000001 -0.000001 -0.000003 -1.735098 -5.617319 -35.119955 0.001183 0.001546 -27.260668 0.000000 -0.000001 -0.000008 -3.284962 -6.311448 -40.215375 -0.010661 0.001078 -30.723963 -0.000001 0.000001 -0.000000 0.000000 0.000000 0.000000 3.441635 0.438675 4.392228 -1.338444 26.813649 69.832920 6.496055 20.772736 3.725234 -19.369267 0.731292 -11.183756 -0.711824 -18.574051 -5.205829 5.057752 -11.167371 -1.710654 -0.000001 0.000001 0.000001 1.206150 0.683169 20.362701 -0.032511 -0.088349 19.403357 -0.000001 0.000002 0.000004 -0.361265 0.805329 23.228068 0.021798 -0.135016 22.104171 0.000002 0.000001 0.000005 -1.355871 1.177344 26.171861 -0.002564 -0.054797 25.374742 -0.000002 -0.000001 -0.000002 -2.975489 2.409642 31.888289 0.016278 -0.042631 27.960257 0.000005 -0.000003 0.000001 0.000000 -0.000000 0.000000 -0.000000 -0.000000 0.000000 -0.000000 -0.000000 0.000000 -0.000000 -0.000000 0.000000 -0.000000 -0.000000 0.000000 -0.000000 -0.000000 0.000000 -0.000000 -0.000000 -0.000000 -0.000000 -0.000000 0.000000 -0.000000 -0.000000 0.000000 -0.000000 -0.000000 -0.000000 -0.000000 -0.000000 0.000000 -0.000000 -0.000000 0.000000 0.000000 0.000000 -0.000000 
-0.598767 80.625122 6.731197 -1.990822 -0.178718 -2.293601 0.000000 0.000000 -0.000000 -40.447745 6.760575 7.566988 52.088184 -3.041067 0.371125 15.518210 -1.068613 -3.339686 -0.000001 -0.000000 -0.000000 -0.000001 -0.000000 -0.000000 0.000001 -0.000000 0.000000 -3.196919 -5.534233 7.027531 24.742953 8.931896 1.197527 -15.625682 1.963713 -11.244653 -0.000000 -0.000001 0.000000 -0.000000 -0.000001 0.000000 0.000002 0.000000 0.000000 12.510023 2.116573 3.435501 -3.612942 1.265447 -1.542698 -3.686461 1.797492 -1.893559 -0.454971 -1.918382 2.239187 -6.518528 -0.741552 -1.606502 -0.000000 -0.000000 0.000000 -0.000000 -0.000000 0.000000 -0.000000 -0.000000 0.000000 2.365262 1.768545 -1.419625 -2.499960 -6.410153 -74.105217 12.333380 -7.942979 -9.091050 -0.941800 1.142123 11.194637 -4.997928 11.538382 11.770950 3.303204 7.797401 1.688875 -0.000000 0.000002 0.000001 0.052092 -6.118276 -25.786281 -0.033728 0.059182 -21.260960 -0.000000 -0.000001 0.000001 -0.762008 -5.193094 -30.130676 0.006651 0.038624 -23.848116 -0.000000 0.000000 0.000000 -1.695729 -5.429054 -35.860334 0.001228 0.001296 -26.933374 0.000000 -0.000001 -0.000004 -3.251570 -6.099931 -41.036401 -0.011147 0.003912 -30.465591 -0.000000 0.000002 0.000002 0.000000 0.000000 0.000000 3.378721 0.842139 4.400773 -1.366121 26.615511 69.639195 6.449907 20.831450 3.341060 -19.082531 1.305479 -10.799618 -0.677167 -17.517487 -5.282752 5.332641 -11.216587 -1.387096 0.000001 0.000000 -0.000002 1.428485 0.240539 18.706923 -0.026892 -0.105709 18.990496 -0.000004 0.000000 0.000002 -0.434628 0.068264 21.854440 0.037666 -0.207329 22.305716 0.000001 0.000000 -0.000000 -1.477212 -0.135897 24.214484 -0.008928 -0.081869 25.877348 0.000000 -0.000000 0.000000 -3.164152 0.847871 30.703459 0.026748 -0.062122 28.331853 0.000001 -0.000003 0.000001 -0.000001 0.000000 -0.000000 0.000000 -0.000000 -0.000000 0.000000 -0.000000 -0.000000 0.000000 -0.000000 -0.000000 0.000000 -0.000000 -0.000000 0.000000 -0.000000 -0.000000 0.000000 -0.000000 -0.000000 0.000000 -0.000000 -0.000000 0.000000 -0.000000 -0.000000 0.000000 -0.000000 -0.000000 0.000000 -0.000000 -0.000000 0.000000 -0.000000 -0.000000 0.000000 0.000000 -0.000000 
